<?xml version="1.0" encoding="iso-8859-1"?>
<!DOCTYPE svg PUBLIC "-//W3C//DTD SVG 1.1//EN" "http://www.w3.org/Graphics/SVG/1.1/DTD/svg11.dtd">
<svg version="1.1" id="Layer_1" xmlns="http://www.w3.org/2000/svg" xmlns:xlink="http://www.w3.org/1999/xlink" x="0px" y="0px"
	 width="100px" height="100px" viewBox="0 0 98 93" style="fill:#26e07f;enable-background:new 0 0 100 100;" xml:space="preserve"
xmlns="http://www.w3.org/2000/svg"><g fill="none" fill-rule="nonzero" stroke="none" stroke-width="1" stroke-linecap="butt" stroke-linejoin="miter" stroke-miterlimit="10" stroke-dasharray="" stroke-dashoffset="0" font-family="none" font-weight="none" font-size="none" text-anchor="none" style="mix-blend-mode: normal"><path d="M0,172v-172h172v172z" fill="none"></path><g fill="#1fb141"><path d="M21.5,21.5v129h64.5v-32.25v-64.5v-32.25zM86,53.75c0,17.7805 14.4695,32.25 32.25,32.25c17.7805,0 32.25,-14.4695 32.25,-32.25c0,-17.7805 -14.4695,-32.25 -32.25,-32.25c-17.7805,0 -32.25,14.4695 -32.25,32.25zM118.25,86c-17.7805,0 -32.25,14.4695 -32.25,32.25c0,17.7805 14.4695,32.25 32.25,32.25c17.7805,0 32.25,-14.4695 32.25,-32.25c0,-17.7805 -14.4695,-32.25 -32.25,-32.25z"></path></g></g></svg>